<svg xmlns="http://www.w3.org/2000/svg" xmlns:xlink="http://www.w3.org/1999/xlink" version="1.1" x="0px" y="0px" viewBox="0 0 100 125" enable-background="new 0 0 100 100" xml:space="preserve"><path d="M71.398,54.734L39.159,86.973c-0.212,0.213-0.491,0.235-0.599,0.238c-0.243-0.003-0.475-0.103-0.651-0.279l-4.724-4.723  c3.257-4.304,2.925-10.48-0.993-14.4c-3.92-3.922-10.098-4.255-14.4-0.992l-4.723-4.723c-0.178-0.178-0.277-0.409-0.28-0.652  c-0.001-0.133,0.027-0.386,0.239-0.598l32.241-32.24c0.586-0.586,0.586-1.535,0-2.121s-1.535-0.586-2.121,0l-32.24,32.239  c-0.733,0.731-1.131,1.711-1.119,2.755c0.013,1.031,0.424,2.003,1.158,2.738l5.711,5.711c0.586,0.586,1.536,0.585,2.12,0.001  c3.116-3.112,8.181-3.109,11.293,0.003c3.109,3.111,3.111,8.178,0.004,11.295c-0.584,0.586-0.583,1.534,0.002,2.119l5.71,5.709  c0.733,0.733,1.705,1.146,2.736,1.158h0.05c1.025,0,1.985-0.396,2.707-1.117L73.52,56.855c0.586-0.586,0.586-1.535,0-2.121  S71.984,54.148,71.398,54.734z M89.055,35.787l-5.711-5.711c-0.586-0.586-1.535-0.585-2.121-0.001  c-3.115,3.113-8.183,3.112-11.296,0.001c-3.114-3.114-3.115-8.181-0.002-11.295c0.586-0.586,0.586-1.535,0-2.121l-5.709-5.71  c-0.746-0.748-1.735-1.16-2.785-1.161H61.43c-1.026,0-1.988,0.397-2.707,1.117l-10.91,10.91c-0.586,0.586-0.586,1.535,0,2.121  s1.535,0.586,2.121,0l10.911-10.91c0.152-0.153,0.36-0.238,0.585-0.238c0.247,0,0.482,0.1,0.664,0.281l4.722,4.723  c-3.265,4.303-2.935,10.481,0.99,14.404c3.922,3.923,10.102,4.253,14.405,0.988l4.723,4.723c0.355,0.355,0.374,0.917,0.041,1.25  l-10.91,10.91c-0.586,0.586-0.586,1.535,0,2.121c0.293,0.293,0.677,0.439,1.061,0.439s0.768-0.146,1.061-0.439l10.911-10.91  C90.599,39.775,90.579,37.312,89.055,35.787z M53.629,30.176c-0.584-0.584-1.535-0.586-2.121,0.002  c-0.585,0.586-0.585,1.535,0.002,2.121l0.778,0.777c0.292,0.292,0.676,0.438,1.06,0.438s0.769-0.146,1.062-0.44  c0.585-0.586,0.585-1.535-0.002-2.121L53.629,30.176z M57.519,34.065c-0.586-0.586-1.535-0.586-2.121,0s-0.586,1.535,0,2.121  l0.778,0.778c0.293,0.293,0.677,0.439,1.061,0.439s0.768-0.146,1.061-0.439c0.586-0.586,0.586-1.535,0-2.121L57.519,34.065z   M49.741,26.287c-0.586-0.586-1.535-0.586-2.121,0s-0.586,1.535,0,2.121l0.777,0.777c0.293,0.293,0.677,0.439,1.061,0.439  s0.768-0.146,1.061-0.439c0.586-0.586,0.586-1.535,0-2.121L49.741,26.287z M61.125,41.293c0.384,0,0.768-0.146,1.061-0.439  c0.586-0.586,0.586-1.535,0-2.121l-0.777-0.777c-0.586-0.586-1.535-0.586-2.121,0s-0.586,1.535,0,2.121l0.777,0.777  C60.357,41.146,60.741,41.293,61.125,41.293z M68.903,49.071c0.384,0,0.769-0.146,1.062-0.44c0.585-0.586,0.585-1.535-0.002-2.121  l-0.778-0.777c-0.584-0.584-1.535-0.586-2.121,0.002c-0.585,0.586-0.585,1.535,0.002,2.121l0.778,0.777  C68.136,48.925,68.52,49.071,68.903,49.071z M73.076,49.623c-0.586-0.588-1.537-0.586-2.121-0.002  c-0.587,0.586-0.587,1.535-0.002,2.121l0.777,0.778c0.293,0.294,0.678,0.44,1.062,0.44s0.768-0.146,1.06-0.438  c0.587-0.586,0.587-1.535,0.002-2.121L73.076,49.623z M65.014,45.183c0.384,0,0.768-0.146,1.06-0.438  c0.587-0.586,0.587-1.535,0.002-2.121l-0.777-0.778c-0.586-0.588-1.537-0.586-2.121-0.002c-0.587,0.586-0.587,1.535-0.002,2.121  l0.777,0.778C64.245,45.036,64.63,45.183,65.014,45.183z M48.765,40.396l-16.47,16.473c-0.586,0.586-0.586,1.535,0,2.121  c0.293,0.293,0.677,0.439,1.061,0.439s0.768-0.146,1.061-0.439l16.47-16.473c0.586-0.586,0.586-1.535,0-2.121  S49.351,39.811,48.765,40.396z M53.124,44.756L36.653,61.227c-0.586,0.586-0.586,1.535,0,2.121c0.293,0.293,0.677,0.439,1.061,0.439  s0.768-0.146,1.061-0.439l16.471-16.471c0.586-0.586,0.586-1.535,0-2.121S53.71,44.17,53.124,44.756z M57.482,49.115l-16.47,16.471  c-0.586,0.586-0.586,1.535,0,2.121c0.293,0.293,0.677,0.439,1.061,0.439s0.768-0.146,1.061-0.439l16.47-16.471  c0.586-0.586,0.586-1.535,0-2.121S58.068,48.529,57.482,49.115z"/><text x="0" y="115" fill="#000000" font-size="5px" font-weight="bold" font-family="'Helvetica Neue', Helvetica, Arial-Unicode, Arial, Sans-serif">Created by Chunk Icons</text><text x="0" y="120" fill="#000000" font-size="5px" font-weight="bold" font-family="'Helvetica Neue', Helvetica, Arial-Unicode, Arial, Sans-serif">from the Noun Project</text></svg>